<?xml version="1.0" standalone="no"?>
<!DOCTYPE svg PUBLIC "-//W3C//DTD SVG 20010904//EN"
 "http://www.w3.org/TR/2001/REC-SVG-20010904/DTD/svg10.dtd">
<svg version="1.0" xmlns="http://www.w3.org/2000/svg"
 width="340.000000pt" height="42.000000pt" viewBox="0 0 340.000000 42.000000"
 preserveAspectRatio="xMidYMid meet">

<g transform="translate(0.000000,42.000000) scale(0.100000,-0.100000)"
fill="#000000" stroke="none">
<path d="M161 409 c-50 -10 -83 -39 -114 -101 -31 -59 -45 -149 -33 -211 16
-84 110 -116 176 -60 17 14 52 61 77 105 l46 79 41 -68 c23 -37 57 -84 77
-105 32 -33 42 -38 83 -38 82 0 115 56 103 182 -18 195 -179 286 -276 155 -13
-18 -15 -17 -50 17 -43 42 -82 55 -130 45z m348 -84 c68 -78 78 -244 14 -253
-28 -4 -54 24 -114 126 -54 91 -55 108 -12 142 39 31 76 26 112 -15z m-261
-18 c17 -17 32 -36 31 -41 0 -6 -26 -49 -58 -96 -67 -99 -101 -120 -132 -81
-37 45 -11 171 47 229 39 39 61 37 112 -11z"/>
<path d="M2130 215 l0 -205 25 0 c17 0 25 6 25 17 0 15 2 14 20 -2 10 -9 38
-20 62 -22 76 -9 128 55 128 157 0 102 -52 166 -128 157 -24 -2 -52 -13 -62
-22 -20 -18 -20 -17 -20 53 0 70 -1 72 -25 72 l-25 0 0 -205z m184 34 c22 -25
26 -41 26 -89 0 -48 -4 -64 -26 -89 -35 -42 -73 -42 -108 0 -22 25 -26 41 -26
89 0 48 4 64 26 89 18 21 35 31 54 31 19 0 36 -10 54 -31z"/>
<path d="M3130 215 l0 -205 25 0 c24 0 25 2 25 72 l0 72 73 -72 c62 -61 78
-72 107 -72 l34 0 -84 78 -84 78 50 46 c27 25 63 57 79 71 l30 26 -31 1 c-25
0 -47 -13 -100 -62 l-69 -62 -3 117 c-3 117 -3 117 -27 117 l-25 0 0 -205z"/>
<path d="M750 206 l0 -196 35 0 34 0 3 141 3 142 53 -97 c48 -87 56 -96 82
-96 26 0 34 10 87 103 l58 102 3 -147 3 -148 29 0 30 0 0 196 0 195 -41 -3
-41 -3 -62 -112 c-33 -62 -64 -109 -68 -105 -4 4 -33 54 -65 112 l-59 105 -42
3 -42 3 0 -195z"/>
<path d="M1578 348 c-3 -39 -6 -43 -30 -46 -22 -3 -28 -9 -28 -27 0 -18 6 -24
28 -27 l27 -3 3 -90 c3 -105 13 -132 57 -144 50 -14 85 -3 85 25 0 20 -5 24
-28 24 -44 0 -52 16 -52 107 l0 83 40 0 c36 0 40 3 40 25 0 23 -4 25 -40 25
l-40 0 0 45 c0 43 -1 45 -29 45 -28 0 -30 -3 -33 -42z"/>
<path d="M2522 305 c-95 -41 -93 -250 2 -290 75 -32 146 -9 176 57 40 88 13
205 -54 233 -44 19 -81 18 -124 0z m113 -49 c45 -45 45 -147 0 -192 -67 -67
-152 19 -130 132 8 45 46 84 80 84 14 0 37 -11 50 -24z"/>
<path d="M2852 305 c-95 -41 -93 -250 2 -290 75 -32 146 -9 176 57 40 88 13
205 -54 233 -44 19 -81 18 -124 0z m113 -49 c45 -45 45 -147 0 -192 -67 -67
-152 19 -130 132 8 45 46 84 80 84 14 0 37 -11 50 -24z"/>
<path d="M1300 292 c-100 -50 -99 -230 3 -273 43 -19 114 -16 155 5 36 18 37
23 17 50 -13 17 -15 17 -37 2 -35 -25 -94 -21 -123 9 -14 13 -25 29 -25 35 0
6 39 10 105 10 l105 0 0 33 c0 17 -9 51 -20 75 -30 67 -108 91 -180 54z m120
-70 c11 -13 20 -29 20 -33 0 -5 -34 -9 -75 -9 -82 0 -93 10 -52 47 41 38 75
37 107 -5z"/>
<path d="M1823 291 c-60 -38 -83 -105 -63 -181 24 -89 104 -130 180 -92 31 15
40 16 40 6 0 -9 11 -14 30 -14 l30 0 0 145 0 145 -30 0 c-21 0 -30 -5 -30 -17
0 -15 -2 -14 -20 2 -30 27 -99 30 -137 6z m134 -63 c18 -17 23 -32 23 -74 0
-45 -4 -56 -26 -73 -62 -49 -134 -8 -134 74 0 35 6 52 25 70 31 32 80 33 112
3z"/>
</g>
</svg>
